<svg xmlns="http://www.w3.org/2000/svg" version="1.1" xmlns:xlink="http://www.w3.org/1999/xlink" xmlns:svgjs="http://svgjs.dev/svgjs" width="1000" height="234" viewBox="0 0 1000 234"><g transform="matrix(1,0,0,1,-0.6060496199866066,-0.5542995879862076)"><svg viewBox="0 0 396 93" data-background-color="#f8efed" preserveAspectRatio="xMidYMid meet" height="234" width="1000" xmlns="http://www.w3.org/2000/svg" xmlns:xlink="http://www.w3.org/1999/xlink"><defs></defs><g id="tight-bounds" transform="matrix(1,0,0,1,0.23999661795323846,0.22029855419964406)"><svg viewBox="0 0 395.52 92.55940289160071" height="92.55940289160071" width="395.52"><g><svg viewBox="0 0 523.5973819329716 122.53201109253959" height="92.55940289160071" width="395.52"><g><rect width="4.615618088292097" height="106.39537866211829" x="111.37899398004055" y="8.06831621521065" fill="#3a424c" opacity="1" stroke-width="0" stroke="transparent" fill-opacity="1" class="rect-o-0" data-fill-palette-color="primary" rx="1%" id="o-0" data-palette-color="#3a424c"></rect></g><g transform="matrix(1,0,0,1,128.07738193297163,16.93459777038717)"><svg viewBox="0 0 395.52 88.66281555176525" height="88.66281555176525" width="395.52"><g><svg viewBox="0 0 395.52 88.66281555176525" height="88.66281555176525" width="395.52"><g><svg viewBox="0 0 395.52 51.181695151726544" height="51.181695151726544" width="395.52"><g transform="matrix(1,0,0,1,0,0)"><svg width="395.52" viewBox="4.849999904632568 -37.099998474121094 286.67999267578125 37.099998474121094" height="51.181695151726544" data-palette-color="#3a424c"><path d="M29.5-37.1L32.45-37.1Q33-37.1 33-36.5L33-36.5 33-0.6Q33-0.3 32.83-0.15 32.65 0 32.35 0L32.35 0 29.9 0Q29.6 0 29.35-0.05 29.1-0.1 28.85-0.4L28.85-0.4 9.55-28.45Q9.3-28.8 9.15-28.75 9-28.7 9-28.4L9-28.4 9-0.65Q9 0 8.3 0L8.3 0 5.5 0Q4.85 0 4.85-0.65L4.85-0.65 4.85-36.4Q4.85-37.1 5.5-37.1L5.5-37.1 8.35-37.1Q8.75-37.1 8.95-37.02 9.15-36.95 9.4-36.6L9.4-36.6 28.15-9.15Q28.45-8.8 28.68-8.9 28.9-9 28.9-9.3L28.9-9.3 28.9-36.5Q28.9-37.1 29.5-37.1L29.5-37.1ZM42.7-36.4L42.7-36.4Q42.7-37.1 43.3-37.1L43.3-37.1 65.75-37.1Q66.25-37.1 66.25-36.55L66.25-36.55 66.25-34Q66.25-33.4 65.6-33.4L65.6-33.4 48.15-33.4Q47.5-33.4 47.5-32.8L47.5-32.8 47.5-21.1Q47.5-20.55 48.05-20.55L48.05-20.55 61-20.55Q61.55-20.55 61.55-20L61.55-20 61.55-17.35Q61.55-17.15 61.45-17.03 61.35-16.9 61-16.9L61-16.9 48.05-16.9Q47.5-16.9 47.5-16.35L47.5-16.35 47.5-4.2Q47.5-3.7 48-3.7L48-3.7 66.35-3.7Q66.9-3.7 66.9-3.2L66.9-3.2 66.9-0.55Q66.9-0.3 66.77-0.15 66.65 0 66.35 0L66.35 0 43.4 0Q42.7 0 42.7-0.7L42.7-0.7 42.7-36.4ZM118.5-37.1L118.5-37.1Q118.95-37.1 119.12-36.85 119.3-36.6 119.2-36.2L119.2-36.2 108.9-0.75Q108.65 0 107.8 0L107.8 0 104.75 0Q103.8 0 103.59-0.7L103.59-0.7 95.59-29.05Q95.55-29.3 95.45-29.3 95.34-29.3 95.25-29L95.25-29 87.15-0.75Q86.9 0 86.05 0L86.05 0 82.95 0Q82 0 81.8-0.7L81.8-0.7 71.65-36.2Q71.55-36.6 71.72-36.85 71.9-37.1 72.34-37.1L72.34-37.1 75.55-37.1Q75.95-37.1 76.15-36.98 76.34-36.85 76.4-36.5L76.4-36.5 84.55-7.4Q84.7-6.85 84.87-6.88 85.05-6.9 85.15-7.35L85.15-7.35 93.45-36.55Q93.55-36.75 93.72-36.93 93.9-37.1 94.34-37.1L94.34-37.1 97.2-37.1Q97.65-37.1 97.82-36.98 98-36.85 98.09-36.5L98.09-36.5 106.3-7.25Q106.45-6.8 106.59-6.83 106.75-6.85 106.9-7.25L106.9-7.25 115.15-36.55Q115.2-36.85 115.42-36.98 115.65-37.1 116-37.1L116-37.1 118.5-37.1ZM126.34-36.4L126.34-36.4Q126.34-37.1 126.94-37.1L126.94-37.1 148.94-37.1Q149.44-37.1 149.44-36.55L149.44-36.55 149.44-34Q149.44-33.4 148.79-33.4L148.79-33.4 131.79-33.4Q131.14-33.4 131.14-32.8L131.14-32.8 131.14-20.5Q131.14-19.95 131.69-19.95L131.69-19.95 145.04-19.95Q145.59-19.95 145.59-19.45L145.59-19.45 145.59-16.8Q145.59-16.35 145.04-16.35L145.04-16.35 131.69-16.35Q131.14-16.35 131.14-15.8L131.14-15.8 131.14-0.65Q131.14 0 130.44 0L130.44 0 127.04 0Q126.64 0 126.49-0.15 126.34-0.3 126.34-0.7L126.34-0.7 126.34-36.4ZM156.39-36.4L156.39-36.4Q156.39-37.1 156.99-37.1L156.99-37.1 160.59-37.1Q161.19-37.1 161.19-36.45L161.19-36.45 161.19-4.2Q161.19-3.7 161.69-3.7L161.69-3.7 178.99-3.7Q179.59-3.7 179.59-3.2L179.59-3.2 179.59-0.55Q179.59-0.3 179.44-0.15 179.29 0 178.99 0L178.99 0 157.09 0Q156.69 0 156.54-0.18 156.39-0.35 156.39-0.7L156.39-0.7 156.39-36.4ZM183.59 0L183.59 0Q183.29 0 183.16-0.23 183.04-0.45 183.14-0.85L183.14-0.85 196.09-36.4Q196.24-36.75 196.44-36.93 196.64-37.1 197.09-37.1L197.09-37.1 200.99-37.1Q201.89-37.1 202.14-36.35L202.14-36.35 214.94-0.85Q215.04-0.55 214.91-0.28 214.79 0 214.44 0L214.44 0 210.89 0Q210.29 0 210.09-0.5L210.09-0.5 206.64-10.2Q206.54-10.4 206.44-10.5 206.34-10.6 206.04-10.6L206.04-10.6 191.49-10.6Q191.04-10.6 190.89-10.2L190.89-10.2 187.34-0.45Q187.29-0.25 187.11-0.13 186.94 0 186.59 0L186.59 0 183.59 0ZM192.64-14.4L204.74-14.4Q205.34-14.4 205.14-15.05L205.14-15.05 199.14-31.5Q198.94-31.95 198.76-31.95 198.59-31.95 198.44-31.5L198.44-31.5 192.34-14.95Q192.09-14.4 192.64-14.4L192.64-14.4ZM222.74 0L222.74 0Q222.03 0 222.03-0.75L222.03-0.75 222.03-36.4Q222.03-37.1 222.63-37.1L222.63-37.1 227.44-37.1Q227.84-37.1 228.01-37 228.19-36.9 228.28-36.55L228.28-36.55 239.38-7.9Q239.59-7.45 239.78-7.48 239.99-7.5 240.19-7.95L240.19-7.95 251.28-36.45Q251.49-37.1 252.03-37.1L252.03-37.1 257.09-37.1Q257.63-37.1 257.63-36.45L257.63-36.45 257.63-0.75Q257.63 0 256.88 0L256.88 0 253.59 0Q253.19 0 253.01-0.15 252.84-0.3 252.84-0.65L252.84-0.65 252.84-29.25Q252.84-29.5 252.74-29.48 252.63-29.45 252.59-29.25L252.59-29.25 241.59-0.65Q241.34 0 240.63 0L240.63 0 238.24 0Q237.44 0 237.24-0.6L237.24-0.6 226.38-28.95Q226.28-29.2 226.21-29.18 226.13-29.15 226.13-28.95L226.13-28.95 226.13-0.65Q226.13-0.3 225.99-0.15 225.84 0 225.44 0L225.44 0 222.74 0ZM267.33-36.4L267.33-36.4Q267.33-37.1 267.93-37.1L267.93-37.1 290.38-37.1Q290.88-37.1 290.88-36.55L290.88-36.55 290.88-34Q290.88-33.4 290.23-33.4L290.23-33.4 272.78-33.4Q272.13-33.4 272.13-32.8L272.13-32.8 272.13-21.1Q272.13-20.55 272.68-20.55L272.68-20.55 285.63-20.55Q286.18-20.55 286.18-20L286.18-20 286.18-17.35Q286.18-17.15 286.08-17.03 285.98-16.9 285.63-16.9L285.63-16.9 272.68-16.9Q272.13-16.9 272.13-16.35L272.13-16.35 272.13-4.2Q272.13-3.7 272.63-3.7L272.63-3.7 290.98-3.7Q291.53-3.7 291.53-3.2L291.53-3.2 291.53-0.55Q291.53-0.3 291.41-0.15 291.28 0 290.98 0L290.98 0 268.03 0Q267.33 0 267.33-0.7L267.33-0.7 267.33-36.4Z" opacity="1" transform="matrix(1,0,0,1,0,0)" fill="#3a424c" class="undefined-text-0" data-fill-palette-color="primary" id="text-0"></path></svg></g></svg></g><g transform="matrix(1,0,0,1,0,63.26446501636554)"><svg viewBox="0 0 232.20979199999996 25.398350535399707" height="25.398350535399707" width="232.20979199999996"><g transform="matrix(1,0,0,1,0,0)"><svg width="232.20979199999996" viewBox="3.8299999237060547 -37.5 437.8900146484375 47.900001525878906" height="25.398350535399707" data-palette-color="#3a424c"><path d="M14.31 0L3.83 0 3.83-35.55 13.96-35.55Q18.82-35.55 21.28-33.18 23.73-30.81 23.73-26.07L23.73-26.07Q23.73-23.58 22.49-21.68 21.24-19.78 19.12-18.73L19.12-18.73Q21.56-17.99 22.99-15.72 24.41-13.45 24.41-10.25L24.41-10.25Q24.41-5.47 21.79-2.73 19.17 0 14.31 0L14.31 0ZM14.5-16.63L8.3-16.63 8.3-3.83 14.4-3.83Q16.94-3.83 18.43-5.51 19.92-7.18 19.92-10.21L19.92-10.21Q19.92-16.63 14.5-16.63L14.5-16.63ZM8.3-31.69L8.3-20.39 14.04-20.39Q16.36-20.39 17.79-21.95 19.21-23.51 19.21-26.1L19.21-26.1Q19.21-29.03 17.92-30.36 16.63-31.69 13.96-31.69L13.96-31.69 8.3-31.69ZM35.15-37.5L35.15 0 30.83 0 30.83-37.5 35.15-37.5ZM41.04-11.55L41.04-14.43Q41.04-20.19 43.83-23.55 46.63-26.9 51.22-26.9 55.81-26.9 58.6-23.63 61.4-20.36 61.47-14.72L61.47-14.72 61.47-11.94Q61.47-6.2 58.69-2.86 55.9 0.49 51.26 0.49L51.26 0.49Q46.67 0.49 43.9-2.76 41.13-6.01 41.04-11.55L41.04-11.55ZM45.36-14.45L45.36-11.94Q45.36-7.86 46.96-5.53 48.55-3.2 51.26-3.2L51.26-3.2Q56.98-3.2 57.15-11.45L57.15-11.45 57.15-14.43Q57.15-18.48 55.54-20.84 53.93-23.19 51.22-23.19L51.22-23.19Q48.55-23.19 46.96-20.84 45.36-18.48 45.36-14.45L45.36-14.45ZM66.18-11.47L66.18-14.4Q66.18-20.58 68.43-23.74 70.67-26.9 74.99-26.9L74.99-26.9Q79.02-26.9 81.12-23.46L81.12-23.46 81.34-26.42 85.25-26.42 85.25 0.24Q85.25 5.15 82.73 7.78 80.22 10.4 75.72 10.4L75.72 10.4Q73.77 10.4 71.34 9.44 68.91 8.47 67.69 7.06L67.69 7.06 69.45 4.08Q72.14 6.71 75.38 6.71L75.38 6.71Q80.78 6.71 80.93 0.83L80.93 0.83 80.93-2.61Q78.83 0.49 74.97 0.49L74.97 0.49Q70.87 0.49 68.57-2.6 66.28-5.69 66.18-11.47L66.18-11.47ZM70.5-14.58L70.5-11.94Q70.5-7.5 71.81-5.41 73.11-3.32 76.09-3.32L76.09-3.32Q79.31-3.32 80.93-6.62L80.93-6.62 80.93-19.82Q79.24-23.07 76.14-23.07L76.14-23.07Q73.16-23.07 71.84-20.98 70.52-18.9 70.5-14.58L70.5-14.58ZM90.81-11.47L90.81-14.4Q90.81-20.58 93.06-23.74 95.3-26.9 99.62-26.9L99.62-26.9Q103.65-26.9 105.75-23.46L105.75-23.46 105.97-26.42 109.88-26.42 109.88 0.24Q109.88 5.15 107.36 7.78 104.85 10.4 100.36 10.4L100.36 10.4Q98.4 10.4 95.97 9.44 93.54 8.47 92.32 7.06L92.32 7.06 94.08 4.08Q96.77 6.71 100.01 6.71L100.01 6.71Q105.41 6.71 105.56 0.83L105.56 0.83 105.56-2.61Q103.46 0.49 99.6 0.49L99.6 0.49Q95.5 0.49 93.2-2.6 90.91-5.69 90.81-11.47L90.81-11.47ZM95.13-14.58L95.13-11.94Q95.13-7.5 96.44-5.41 97.74-3.32 100.72-3.32L100.72-3.32Q103.95-3.32 105.56-6.62L105.56-6.62 105.56-19.82Q103.87-23.07 100.77-23.07L100.77-23.07Q97.79-23.07 96.47-20.98 95.16-18.9 95.13-14.58L95.13-14.58ZM120.96-26.42L120.96 0 116.64 0 116.64-26.42 120.96-26.42ZM121.3-33.42L121.3-33.42Q121.3-32.32 120.69-31.59 120.08-30.86 118.84-30.86L118.84-30.86Q117.61-30.86 117-31.59 116.39-32.32 116.39-33.42 116.39-34.52 117-35.28 117.61-36.04 118.84-36.04 120.06-36.04 120.68-35.27 121.3-34.5 121.3-33.42ZM127.74-26.42L131.82-26.42 131.94-23.56Q134.46-26.9 138.36-26.9L138.36-26.9Q145.37-26.9 145.47-17.55L145.47-17.55 145.47 0 141.17 0 141.17-17.36Q141.17-20.46 140.13-21.77 139.1-23.07 137.02-23.07L137.02-23.07Q135.41-23.07 134.13-22 132.85-20.92 132.07-19.19L132.07-19.19 132.07 0 127.74 0 127.74-26.42ZM151.08-11.47L151.08-14.4Q151.08-20.58 153.33-23.74 155.57-26.9 159.89-26.9L159.89-26.9Q163.92-26.9 166.02-23.46L166.02-23.46 166.24-26.42 170.15-26.42 170.15 0.24Q170.15 5.15 167.63 7.78 165.12 10.4 160.63 10.4L160.63 10.4Q158.67 10.4 156.24 9.44 153.82 8.47 152.59 7.06L152.59 7.06 154.35 4.08Q157.04 6.71 160.29 6.71L160.29 6.71Q165.68 6.71 165.83 0.83L165.83 0.83 165.83-2.61Q163.73 0.49 159.87 0.49L159.87 0.49Q155.77 0.49 153.47-2.6 151.18-5.69 151.08-11.47L151.08-11.47ZM155.4-14.58L155.4-11.94Q155.4-7.5 156.71-5.41 158.01-3.32 160.99-3.32L160.99-3.32Q164.22-3.32 165.83-6.62L165.83-6.62 165.83-19.82Q164.14-23.07 161.04-23.07L161.04-23.07Q158.06-23.07 156.75-20.98 155.43-18.9 155.4-14.58L155.4-14.58ZM188.62-35.55L194.39-35.55 203.66-6.54 212.94-35.55 218.7-35.55 218.7 0 214.24 0 214.24-13.84 214.65-27.71 205.35 0 201.93 0 192.68-27.61 193.09-13.84 193.09 0 188.62 0 188.62-35.55ZM243.87 0L239.38 0Q238.99-0.85 238.82-2.88L238.82-2.88Q236.52 0.49 232.96 0.49L232.96 0.49Q229.37 0.49 227.36-1.53 225.34-3.54 225.34-7.2L225.34-7.2Q225.34-11.23 228.08-13.6 230.81-15.97 235.57-16.02L235.57-16.02 238.74-16.02 238.74-18.82Q238.74-21.19 237.69-22.19 236.64-23.19 234.5-23.19L234.5-23.19Q232.54-23.19 231.32-22.03 230.1-20.87 230.1-19.09L230.1-19.09 225.78-19.09Q225.78-21.12 226.98-22.96 228.17-24.8 230.2-25.85 232.23-26.9 234.72-26.9L234.72-26.9Q238.77-26.9 240.88-24.89 242.99-22.88 243.04-19.02L243.04-19.02 243.04-5.69Q243.07-2.64 243.87-0.39L243.87-0.39 243.87 0ZM233.62-3.44L233.62-3.44Q235.2-3.44 236.64-4.32 238.09-5.2 238.74-6.52L238.74-6.52 238.74-12.82 236.3-12.82Q233.23-12.77 231.44-11.44 229.66-10.11 229.66-7.71L229.66-7.71Q229.66-5.47 230.57-4.46 231.47-3.44 233.62-3.44ZM248.83-11.69L248.83-14.4Q248.83-20.51 251.11-23.71 253.39-26.9 257.66-26.9L257.66-26.9Q261.45-26.9 263.57-23.83L263.57-23.83 263.57-37.5 267.89-37.5 267.89 0 263.94 0 263.72-2.83Q261.59 0.49 257.64 0.49L257.64 0.49Q253.54 0.49 251.21-2.7 248.87-5.88 248.83-11.69L248.83-11.69ZM253.15-14.58L253.15-11.94Q253.15-7.5 254.46-5.41 255.78-3.32 258.76-3.32L258.76-3.32Q261.98-3.32 263.57-6.57L263.57-6.57 263.57-19.9Q261.91-23.07 258.79-23.07L258.79-23.07Q255.81-23.07 254.49-20.98 253.17-18.9 253.15-14.58L253.15-14.58ZM283.98 0.49L283.98 0.49Q279.05 0.49 276.41-2.45 273.77-5.4 273.72-11.08L273.72-11.08 273.72-14.28Q273.72-20.19 276.3-23.55 278.88-26.9 283.49-26.9L283.49-26.9Q288.13-26.9 290.42-23.95 292.72-21 292.77-14.75L292.77-14.75 292.77-11.91 278.02-11.91 278.02-11.3Q278.02-7.06 279.62-5.13 281.22-3.2 284.22-3.2L284.22-3.2Q286.13-3.2 287.58-3.92 289.03-4.64 290.3-6.2L290.3-6.2 292.55-3.47Q289.74 0.49 283.98 0.49ZM283.49-23.19L283.49-23.19Q280.8-23.19 279.51-21.35 278.22-19.51 278.05-15.63L278.05-15.63 288.45-15.63 288.45-16.21Q288.28-19.97 287.09-21.58 285.91-23.19 283.49-23.19ZM321.64-13.92L314.47-13.92 314.47 0 310 0 310-35.55 321.33-35.55Q326.28-35.55 329.12-32.58 331.95-29.61 331.95-24.68L331.95-24.68Q331.95-19.56 329.25-16.78 326.55-14.01 321.64-13.92L321.64-13.92ZM314.47-31.69L314.47-17.75 321.33-17.75Q324.31-17.75 325.89-19.53 327.48-21.31 327.48-24.63L327.48-24.63Q327.48-27.83 325.84-29.76 324.21-31.69 321.35-31.69L321.35-31.69 314.47-31.69ZM347.98-26.56L348.01-22.36Q347.11-22.53 346.06-22.53L346.06-22.53Q342.74-22.53 341.42-18.9L341.42-18.9 341.42 0 337.1 0 337.1-26.42 341.3-26.42 341.37-23.73Q343.1-26.9 346.28-26.9L346.28-26.9Q347.3-26.9 347.98-26.56L347.98-26.56ZM356.97-26.42L356.97 0 352.65 0 352.65-26.42 356.97-26.42ZM357.31-33.42L357.31-33.42Q357.31-32.32 356.7-31.59 356.09-30.86 354.84-30.86L354.84-30.86Q353.62-30.86 353.01-31.59 352.4-32.32 352.4-33.42 352.4-34.52 353.01-35.28 353.62-36.04 354.84-36.04 356.06-36.04 356.69-35.27 357.31-34.5 357.31-33.42ZM366.05-26.42L371.25-6.57 376.25-26.42 380.65-26.42 372.81 0 369.59 0 361.65-26.42 366.05-26.42ZM402.86 0L398.37 0Q397.98-0.85 397.81-2.88L397.81-2.88Q395.51 0.49 391.95 0.49L391.95 0.49Q388.36 0.49 386.34-1.53 384.33-3.54 384.33-7.2L384.33-7.2Q384.33-11.23 387.06-13.6 389.8-15.97 394.56-16.02L394.56-16.02 397.73-16.02 397.73-18.82Q397.73-21.19 396.68-22.19 395.63-23.19 393.49-23.19L393.49-23.19Q391.53-23.19 390.31-22.03 389.09-20.87 389.09-19.09L389.09-19.09 384.77-19.09Q384.77-21.12 385.97-22.96 387.16-24.8 389.19-25.85 391.21-26.9 393.71-26.9L393.71-26.9Q397.76-26.9 399.87-24.89 401.98-22.88 402.03-19.02L402.03-19.02 402.03-5.69Q402.05-2.64 402.86-0.39L402.86-0.39 402.86 0ZM392.61-3.44L392.61-3.44Q394.19-3.44 395.63-4.32 397.07-5.2 397.73-6.52L397.73-6.52 397.73-12.82 395.29-12.82Q392.22-12.77 390.43-11.44 388.65-10.11 388.65-7.71L388.65-7.71Q388.65-5.47 389.55-4.46 390.46-3.44 392.61-3.44ZM410.08-32.81L414.38-32.81 414.38-26.42 418.36-26.42 418.36-22.92 414.38-22.92 414.38-6.54Q414.38-4.98 414.89-4.17 415.41-3.37 416.65-3.37L416.65-3.37Q417.51-3.37 418.39-3.66L418.39-3.66 418.34 0Q416.87 0.49 415.33 0.49L415.33 0.49Q412.77 0.49 411.43-1.34 410.08-3.17 410.08-6.52L410.08-6.52 410.08-22.92 406.06-22.92 406.06-26.42 410.08-26.42 410.08-32.81ZM432.93 0.49L432.93 0.49Q428 0.49 425.37-2.45 422.73-5.4 422.68-11.08L422.68-11.08 422.68-14.28Q422.68-20.19 425.26-23.55 427.83-26.9 432.45-26.9L432.45-26.9Q437.08-26.9 439.38-23.95 441.67-21 441.72-14.75L441.72-14.75 441.72-11.91 426.98-11.91 426.98-11.3Q426.98-7.06 428.58-5.13 430.17-3.2 433.18-3.2L433.18-3.2Q435.08-3.2 436.53-3.92 437.99-4.64 439.26-6.2L439.26-6.2 441.5-3.47Q438.7 0.49 432.93 0.49ZM432.45-23.19L432.45-23.19Q429.76-23.19 428.47-21.35 427.17-19.51 427-15.63L427-15.63 437.4-15.63 437.4-16.21Q437.23-19.97 436.05-21.58 434.86-23.19 432.45-23.19Z" opacity="1" transform="matrix(1,0,0,1,0,0)" fill="#3a424c" class="undefined-text-1" data-fill-palette-color="secondary" id="text-1"></path></svg></g></svg></g></svg></g></svg></g><g id="flame"><svg viewBox="0 0 99.29622411540156 122.53201109253959" height="122.53201109253959" width="99.29622411540156"><g><svg xmlns="http://www.w3.org/2000/svg" version="1.0" viewBox="19.736255645751953 12.77199935913086 59.52732467651367 73.45700073242188" xml:space="preserve" x="0" y="0" height="122.53201109253959" width="99.29622411540156" class="icon-icon-0" data-fill-palette-color="accent" id="icon-0"><path d="M37.292 86.229a29.771 29.771 0 0 1-6.923-4.354C17.777 71.311 16.134 52.537 26.7 39.944l22.8-27.172 22.8 27.172c10.565 12.593 8.924 31.367-3.67 41.931a29.745 29.745 0 0 1-6.922 4.354c3.759-4.744 3.612-11.297-0.809-15.941L49.5 58.311 38.1 70.287c-4.421 4.645-4.567 11.197-0.808 15.942z" fill="#ec6164" data-fill-palette-color="accent"></path></svg></g></svg></g></svg></g></svg><rect width="395.52" height="92.55940289160071" fill="none" stroke="none" visibility="hidden"></rect></g></svg></g></svg>